
        <svg xmlns="http://www.w3.org/2000/svg" xmlns:xlink="http://www.w3.org/1999/xlink" version="1.1" width="3200" 
        height="3200" viewBox="0 0 3200 3200">
			
			<g transform="scale(10) translate(10, 10)">
				<defs id="SvgjsDefs2406"></defs><g id="SvgjsG2407" featureKey="rootContainer" transform="matrix(1.4961996856738697,0,0,1.4961996856738697,0,0)" fill="#aa96da"><path xmlns="http://www.w3.org/2000/svg" d="M100.254 0C44.974 0 0 44.974 0 100.254s44.974 100.254 100.254 100.254c55.28 0 100.254-44.974 100.254-100.254S155.534 0 100.254 0zm0 195.508C47.731 195.508 5 152.777 5 100.254S47.731 5 100.254 5s95.254 42.73 95.254 95.254-42.731 95.254-95.254 95.254z"></path></g><g id="SvgjsG2408" featureKey="symbolFeature-0" transform="matrix(1.0264094962925467,0,0,1.0264094962925467,100,74)" fill="#aa96da"><path xmlns="http://www.w3.org/2000/svg" d="M35.03,35.148c-7.732-3.146-11.661-3.487-15.821-3.848c-4.101-0.354-8.347-0.729-16.382-3.95  c-0.597,0.901-1.09,2.651-1.487,4.772c8.261,2.153,12.443,1.988,16.477,1.821c4.081-0.168,8.298-0.341,16.548,1.847  c2.792,0.741,4.966,1.47,6.695,2.176C39.524,37.117,37.569,36.181,35.03,35.148z"></path><path xmlns="http://www.w3.org/2000/svg" d="M34.048,37.982c-8.068-2.141-12.008-1.98-16.182-1.808c-4.11,0.17-8.367,0.338-16.739-1.835  c-0.27,1.654-0.488,3.445-0.661,5.174c8.167,0.969,12.216,0.268,16.122-0.416c4.021-0.703,8.179-1.43,16.647-0.348  c3.312,0.424,5.807,0.94,7.732,1.5C39.258,39.53,37.023,38.771,34.048,37.982z"></path><path xmlns="http://www.w3.org/2000/svg" d="M16.801,41.31c-3.991,0.697-8.125,1.412-16.451,0.43C0.18,43.635,0.063,45.386,0,46.685  c8.365-0.059,12.312-1.281,16.133-2.465c3.901-1.208,7.934-2.457,16.469-2.457c2.886,0,5.174,0.146,7.025,0.387  c-1.702-0.43-3.83-0.831-6.547-1.178C24.8,39.912,20.914,40.591,16.801,41.31z"></path><path xmlns="http://www.w3.org/2000/svg" d="M79.611,33.969c4.043,0.165,8.232,0.333,16.533-1.835c-0.41-2.307-0.904-4.096-1.479-4.783  c-8.078,3.246-12.334,3.619-16.447,3.975c-4.16,0.361-8.09,0.7-15.822,3.849c-2.539,1.034-4.496,1.97-6.031,2.821  c1.729-0.707,3.904-1.438,6.699-2.178C71.312,33.628,75.531,33.802,79.611,33.969z"></path><path xmlns="http://www.w3.org/2000/svg" d="M94.041,25.278L85.287,0c-6.336,2.515-9.715,2.807-12.984,3.09c-3.342,0.289-6.498,0.562-12.707,3.089  c-8.611,3.506-9.078,5.696-9.328,6.873c-0.121,0.565-0.264,1.197-1.038,1.609v28.725c0.004-0.006,0.012-0.012,0.017-0.02  c0.036-0.052,0.068-0.115,0.1-0.184c0.065-0.158,0.114-0.348,0.174-0.625c0.39-1.831,1.042-4.896,12.414-9.523  c7.904-3.22,12.111-3.583,16.18-3.936C82.107,28.753,86.234,28.397,94.041,25.278z"></path><path xmlns="http://www.w3.org/2000/svg" d="M80.837,39.123c3.91,0.684,7.961,1.383,16.141,0.414c-0.172-1.79-0.383-3.569-0.633-5.184  c-8.398,2.184-12.664,2.017-16.785,1.846c-4.174-0.171-8.113-0.332-16.182,1.809c-2.975,0.79-5.209,1.549-6.922,2.27  c1.926-0.56,4.422-1.076,7.734-1.5C72.656,37.693,76.818,38.42,80.837,39.123z"></path><path xmlns="http://www.w3.org/2000/svg" d="M81.294,44.247c3.82,1.183,7.768,2.406,16.133,2.466c-0.072-1.51-0.188-3.213-0.336-4.948  c-8.334,0.985-12.473,0.269-16.465-0.429c-4.113-0.719-7.998-1.397-16.279-0.338c-2.715,0.348-4.844,0.75-6.545,1.178  c1.85-0.238,4.137-0.387,7.023-0.387C73.361,41.789,77.394,43.039,81.294,44.247z"></path><path xmlns="http://www.w3.org/2000/svg" d="M47.907,42.533c0.033,0.154,0.061,0.279,0.091,0.394V14.662c-0.774-0.412-0.917-1.044-1.037-1.609  c-0.251-1.177-0.717-3.367-9.329-6.873c-6.209-2.527-9.365-2.8-12.706-3.089c-3.27-0.283-6.647-0.576-12.981-3.089L3.382,25.25  c7.81,3.121,11.938,3.479,15.933,3.824c4.068,0.353,8.274,0.717,16.179,3.934C46.866,37.636,47.518,40.702,47.907,42.533z"></path></g><g id="SvgjsG2409" featureKey="nameFeature-0" transform="matrix(1.4234037585452335,0,0,1.4234037585452335,44.249448869775804,127.02579452344882)" fill="#aa96da"><path d="M14.92 40 l-10.88 0 l0 -29.16 l10.48 0 c5.28 -0.08 9.4 2.64 9.4 7.32 c0 0.68 -0.04 1.28 -0.4 2.4 c-0.16 0.56 -0.4 1.04 -0.72 1.52 c-0.6 0.96 -1.8 2.08 -3.32 2.76 c2.04 0.52 3.68 1.76 4.52 3.16 s1.2 2.8 1.2 4 c0 2.72 -1.16 4.84 -3.08 6.12 c-1.92 1.24 -4.4 1.88 -7.2 1.88 z M14.28 13.64 l-7.2 0 l0 10.16 l6.96 0 c2.28 0 3.96 -0.48 5.08 -1.48 s1.68 -2.24 1.68 -3.8 c0 -3.56 -3.2 -4.88 -6.52 -4.88 z M14.4 26.52 l-7.32 0 l0 10.68 l7.92 0 c3.16 0 7.08 -1.28 7.08 -5.4 c0 -2.52 -1.56 -3.92 -3.52 -4.6 c-1.36 -0.52 -2.68 -0.68 -4.16 -0.68 z M59.507000000000005 25.36 c0 2.76 -0.64 5.28 -1.88 7.56 c-1.28 2.28 -3.04 4.08 -5.28 5.4 c-2.28 1.32 -4.76 2 -7.56 2 c-2.04 0 -3.96 -0.4 -5.8 -1.16 c-1.8 -0.76 -3.36 -1.8 -4.64 -3.16 c-1.28 -1.28 -2.28 -2.84 -3.04 -4.68 c-0.72 -1.84 -1.12 -3.76 -1.12 -5.8 c0 -2.76 0.64 -5.28 1.92 -7.56 c1.24 -2.28 3 -4.12 5.28 -5.44 c2.24 -1.32 4.76 -1.96 7.52 -1.96 c2.04 0 3.96 0.36 5.8 1.12 c1.8 0.8 3.36 1.84 4.64 3.12 c1.28 1.36 2.32 2.92 3.04 4.72 c0.76 1.84 1.12 3.76 1.12 5.84 z M56.347 25.52 c0 -3.28 -1.2 -6.32 -3.2 -8.52 s-5 -3.6 -8.36 -3.6 c-2.16 0 -4.12 0.56 -5.88 1.6 c-1.76 1.12 -3.12 2.56 -4.08 4.36 c-0.96 1.84 -1.44 3.84 -1.44 6 c0 3.24 1.2 6.32 3.2 8.48 c2 2.2 5 3.6 8.32 3.6 c2.16 0 4.12 -0.56 5.88 -1.64 c1.8 -1.04 3.16 -2.52 4.12 -4.32 s1.44 -3.8 1.44 -5.96 z M93.73400000000001 25.36 c0 2.76 -0.64 5.28 -1.88 7.56 c-1.28 2.28 -3.04 4.08 -5.28 5.4 c-2.28 1.32 -4.76 2 -7.56 2 c-2.04 0 -3.96 -0.4 -5.8 -1.16 c-1.8 -0.76 -3.36 -1.8 -4.64 -3.16 c-1.28 -1.28 -2.28 -2.84 -3.04 -4.68 c-0.72 -1.84 -1.12 -3.76 -1.12 -5.8 c0 -2.76 0.64 -5.28 1.92 -7.56 c1.24 -2.28 3 -4.12 5.28 -5.44 c2.24 -1.32 4.76 -1.96 7.52 -1.96 c2.04 0 3.96 0.36 5.8 1.12 c1.8 0.8 3.36 1.84 4.64 3.12 c1.28 1.36 2.32 2.92 3.04 4.72 c0.76 1.84 1.12 3.76 1.12 5.84 z M90.574 25.52 c0 -3.28 -1.2 -6.32 -3.2 -8.52 s-5 -3.6 -8.36 -3.6 c-2.16 0 -4.12 0.56 -5.88 1.6 c-1.76 1.12 -3.12 2.56 -4.08 4.36 c-0.96 1.84 -1.44 3.84 -1.44 6 c0 3.24 1.2 6.32 3.2 8.48 c2 2.2 5 3.6 8.32 3.6 c2.16 0 4.12 -0.56 5.88 -1.64 c1.8 -1.04 3.16 -2.52 4.12 -4.32 s1.44 -3.8 1.44 -5.96 z M103.76100000000001 40 l-3.08 0 l0 -29.16 l3.08 0 l0 12.88 l0.2 0 l13.08 -12.88 l4.24 0 l-14.28 13.96 l14.96 15.2 l-4.32 0 l-13.68 -14.04 l-0.2 0 l0 14.04 z M134.868 40.28 c-2.76 0 -5.4 -1.04 -7.12 -2.56 c-1.8 -1.56 -2.96 -3.64 -3.2 -5.68 l2.88 -0.8 c0.32 1.72 1.2 3.16 2.64 4.36 c1.4 1.2 3 1.8 4.8 1.8 c1.68 0 3.24 -0.4 4.48 -1.28 c1.24 -0.84 2.04 -2.28 2.04 -4.04 c0 -2.04 -1.08 -3.36 -2.44 -4.16 c-0.96 -0.56 -1.8 -0.8 -2.76 -1 l-3.84 -0.76 c-0.8 -0.16 -1.64 -0.44 -2.56 -0.84 c-0.92 -0.44 -1.72 -0.96 -2.4 -1.64 c-1.36 -1.32 -2.04 -3 -2.04 -5.04 c0 -1.6 0.44 -3.04 1.32 -4.28 c0.88 -1.28 2 -2.2 3.4 -2.88 c1.4 -0.64 2.88 -0.96 4.52 -0.96 c6.28 0 9.04 3.88 9.64 7 l-2.8 0.88 c-0.48 -2.08 -2.36 -5.04 -6.88 -5.04 c-3.12 -0.08 -6.16 2.12 -6.12 5.16 c0 2.24 1.4 4.04 4.24 4.6 l3.68 0.72 c2.48 0.48 4.4 1.32 5.68 2.56 c0.88 0.8 1.52 1.72 1.92 2.68 c0.4 1 0.6 1.88 0.6 2.68 c0.04 5.12 -4.28 8.64 -9.68 8.52 z"></path></g><g id="SvgjsG2410" featureKey="nameFeature-1" transform="matrix(1.0468902554350883,0,0,1.0468902554350883,49.16248759597346,182.98671403359455)" fill="#aa96da"><path d="M13.6 13.719999999999999 l0 26.28 l-3.04 0 l0 -26.28 l-9.76 0 l0 -2.88 l22.56 0 l0 2.88 l-9.76 0 z M50.467 40 l-3.72 0 l-8.64 -11.8 l-5.92 0 l0 11.8 l-3.08 0 l0 -29.16 l10.12 0 c3.44 0 6.2 0.96 7.8 2.56 s2.44 3.6 2.44 5.96 c0 4.92 -3.68 7.76 -8 8.32 z M32.187 13.719999999999999 l0 11.68 l6.76 0 c2.56 0 4.56 -0.72 5.72 -1.88 c1.12 -1.12 1.68 -2.52 1.68 -4.08 c0 -2.88 -1.76 -5.72 -7.32 -5.72 l-6.84 0 z M78.294 40 l-3.2 -7.44 l-15.88 0 l-3.2 7.44 l-3.12 0 l12.56 -29.16 l3.48 0 l12.6 29.16 l-3.24 0 z M73.934 29.759999999999998 l-6.8 -15.76 l-6.76 15.76 l13.56 0 z M99.12100000000001 40.32 c-4 0 -7.72 -1.56 -10.32 -4.12 c-1.28 -1.28 -2.32 -2.84 -3.08 -4.68 c-0.76 -1.88 -1.16 -3.88 -1.16 -6 c0 -2.16 0.4 -4.2 1.2 -6.08 s1.84 -3.48 3.16 -4.76 c2.68 -2.6 6.4 -4.16 10.32 -4.16 c3.08 0 5.88 0.92 7.76 2.24 c0.96 0.64 1.8 1.4 2.56 2.24 c1.48 1.72 2.28 3.44 2.72 5.12 l-2.92 1.04 c-0.24 -0.96 -0.64 -2 -1.72 -3.52 c-0.56 -0.76 -1.16 -1.44 -1.88 -2.04 s-1.64 -1.12 -2.8 -1.52 c-1.16 -0.44 -2.4 -0.64 -3.8 -0.64 c-3.04 0 -5.96 1.24 -8 3.28 c-2.08 2.08 -3.4 5.16 -3.4 8.6 c0 2.28 0.48 4.36 1.48 6.2 c0.96 1.84 2.32 3.28 4.12 4.32 c1.72 1.04 3.68 1.56 5.84 1.56 c2.68 0 5 -0.92 6.4 -2.04 c0.72 -0.56 1.36 -1.2 1.92 -2 c0.56 -0.76 0.96 -1.44 1.24 -2 c0.24 -0.56 0.48 -1.16 0.68 -1.76 l2.92 1.04 c-0.44 1.56 -1.2 3.16 -2.68 4.96 c-0.72 0.88 -1.6 1.68 -2.52 2.36 c-1.92 1.36 -4.84 2.36 -8.04 2.36 z M121.82800000000002 40 l-3.08 0 l0 -29.16 l3.08 0 l0 12.88 l0.2 0 l13.08 -12.88 l4.24 0 l-14.28 13.96 l14.96 15.2 l-4.32 0 l-13.68 -14.04 l-0.2 0 l0 14.04 z M144.855 40 l0 -29.16 l18.24 0 l0 2.84 l-15.16 0 l0 10.08 l13.88 0 l0 2.84 l-13.88 0 l0 10.56 l15.32 0 l0 2.84 l-18.4 0 z M191.842 40 l-3.72 0 l-8.64 -11.8 l-5.92 0 l0 11.8 l-3.08 0 l0 -29.16 l10.12 0 c3.44 0 6.2 0.96 7.8 2.56 s2.44 3.6 2.44 5.96 c0 4.92 -3.68 7.76 -8 8.32 z M173.562 13.719999999999999 l0 11.68 l6.76 0 c2.56 0 4.56 -0.72 5.72 -1.88 c1.12 -1.12 1.68 -2.52 1.68 -4.08 c0 -2.88 -1.76 -5.72 -7.32 -5.72 l-6.84 0 z"></path></g>
			</g>
		</svg>
	